<svg width="478" height="478" viewBox="0 0 478 478" fill="none" xmlns="http://www.w3.org/2000/svg">
<g clip-path="url(#clip0)">
<path d="M452.24 3.59913e-05H26.0897C18.5689 -0.0141812 11.6783 4.18462 8.24245 10.8714C4.75925 17.6483 5.37059 25.8089 9.82056 31.9981L165.944 251.933C165.996 252.009 166.053 252.08 166.105 252.156C171.778 259.814 174.849 269.093 174.863 278.623V457.935C174.83 463.243 176.915 468.347 180.654 472.114C184.398 475.877 189.488 478 194.795 478C197.492 477.995 200.165 477.46 202.657 476.422L290.387 442.974C298.244 440.571 303.462 433.154 303.462 424.226V278.623C303.476 269.093 306.547 259.814 312.215 252.156C312.267 252.08 312.324 252.009 312.376 251.933L468.504 31.9934C472.954 25.8089 473.566 17.653 470.082 10.8762C466.651 4.18462 459.756 -0.0141812 452.24 3.59913e-05Z" fill="#F8FCFC"/>
</g>
<defs>
<clipPath id="clip0">
<rect width="478" height="478" fill="white"/>
</clipPath>
</defs>
</svg>
